<svg width="24" height="25" viewBox="0 0 24 25" fill="none" xmlns="http://www.w3.org/2000/svg">
<path d="M12 2.33447C8.13 2.33447 5 5.47444 5 9.35677C5 13.54 9.42 19.3084 11.24 21.5053C11.64 21.9869 12.37 21.9869 12.77 21.5053C14.58 19.3084 19 13.54 19 9.35677C19 5.47444 15.87 2.33447 12 2.33447ZM12 11.8647C11.337 11.8647 10.7011 11.6005 10.2322 11.1302C9.76339 10.6598 9.5 10.0219 9.5 9.35677C9.5 8.69161 9.76339 8.0537 10.2322 7.58337C10.7011 7.11304 11.337 6.8488 12 6.8488C12.663 6.8488 13.2989 7.11304 13.7678 7.58337C14.2366 8.0537 14.5 8.69161 14.5 9.35677C14.5 10.0219 14.2366 10.6598 13.7678 11.1302C13.2989 11.6005 12.663 11.8647 12 11.8647Z" fill="#BDBDBD"/>
</svg>
