<svg width="23" height="24" fill="none"
  xmlns="http://www.w3.org/2000/svg">
  <path d="M19.167 11.049h1.916c0-4.932-3.711-8.652-8.634-8.652V4.32c3.893 0 6.718 2.83 6.718 6.729z" fill="#BDBDBD"/>
  <path d="M12.458 8.166c2.016 0 2.875.862 2.875 2.884h1.917c0-3.1-1.701-4.807-4.792-4.807v1.923zm3.28 5.232a.958.958 0 00-1.333.042l-2.294 2.366c-.552-.106-1.661-.453-2.804-1.596-1.142-1.147-1.488-2.263-1.59-2.813l2.356-2.302a.963.963 0 00.041-1.337l-3.54-3.906a.957.957 0 00-1.334-.084l-2.08 1.79a.963.963 0 00-.277.623c-.015.24-.289 5.934 4.112 10.35 3.839 3.851 8.648 4.133 9.972 4.133.194 0 .313-.006.344-.008a.95.95 0 00.621-.28l1.783-2.087a.963.963 0 00-.083-1.337l-3.894-3.554z" fill="#BDBDBD"/>
</svg>