<svg width="20" height="20" fill="none"
  xmlns="http://www.w3.org/2000/svg">
  <g clip-path="url(#prefix__clip0)">
    <path d="M10 19.167c-1.354 0-2.65-.242-3.887-.725-1.237-.484-2.301-1.134-3.193-1.952A9.17 9.17 0 01.79 13.563 8.352 8.352 0 010 10c0-1.241.264-2.429.791-3.563A9.17 9.17 0 012.92 3.51c.892-.818 1.956-1.468 3.193-1.952A10.584 10.584 0 0110 .833c1.354 0 2.65.242 3.887.725 1.237.484 2.301 1.134 3.193 1.952a9.172 9.172 0 012.129 2.927A8.352 8.352 0 0120 10a8.353 8.353 0 01-.791 3.563 9.172 9.172 0 01-2.129 2.927c-.892.818-1.956 1.468-3.193 1.952a10.584 10.584 0 01-3.887.725zm5-12.604c0-.31-.12-.58-.361-.806a1.248 1.248 0 00-.889-.34h-7.5c-.339 0-.632.113-.879.34A1.058 1.058 0 005 6.563v1.145h2.227c.755-.764 1.68-1.145 2.773-1.145 1.094 0 2.018.381 2.773 1.145H15V6.563zM7.5 10c0 .633.244 1.173.732 1.62.489.448 1.078.672 1.768.672s1.28-.224 1.768-.672c.488-.447.732-.987.732-1.62 0-.633-.244-1.173-.732-1.62-.489-.448-1.078-.672-1.768-.672s-1.28.224-1.768.672c-.488.447-.732.987-.732 1.62zM15 8.854h-1.484c.156.394.234.776.234 1.146 0 .955-.365 1.767-1.094 2.435-.729.668-1.614 1.002-2.656 1.002s-1.927-.334-2.656-1.002c-.73-.668-1.094-1.48-1.094-2.435 0-.37.078-.752.234-1.146H5v4.584c0 .322.12.593.361.814.241.221.537.331.889.331h7.5c.352 0 .648-.11.889-.33.24-.222.361-.493.361-.816V8.854z" fill="#BDBDBD"/>
  </g>
  <defs>
    <clipPath id="prefix__clip0">
      <path fill="#fff" transform="translate(0 .833)" d="M0 0h20v18.333H0z"/>
    </clipPath>
  </defs>
</svg>