<svg width="21" height="21" viewBox="0 0 21 21" fill="none" xmlns="http://www.w3.org/2000/svg">
<path d="M12.1831 10.2976L9.82477 9.28895C9.61897 9.20136 9.44992 9.29953 9.44992 9.5084V11.4084C9.44992 11.6172 9.61897 11.7154 9.82477 11.6278L12.182 10.6191C12.3889 10.5306 12.3889 10.3862 12.1831 10.2976ZM10.4999 1.21838C4.93282 1.21838 0.419922 5.35521 0.419922 10.4584C0.419922 15.5616 4.93282 19.6984 10.4999 19.6984C16.067 19.6984 20.5799 15.5616 20.5799 10.4584C20.5799 5.35521 16.067 1.21838 10.4999 1.21838ZM10.4999 14.2121C5.34022 14.2121 5.24992 13.7857 5.24992 10.4584C5.24992 7.13102 5.34022 6.70463 10.4999 6.70463C15.6596 6.70463 15.7499 7.13102 15.7499 10.4584C15.7499 13.7857 15.6596 14.2121 10.4999 14.2121Z" fill="#BDBDBD"/>
</svg>
